<svg xmlns="http://www.w3.org/2000/svg" viewBox="0 0 480 90" width="480" height="90">
  <!-- Пузырь EN -->
  <rect x="8" y="10" width="76" height="54" rx="13" fill="#185FA5"/>
  <polygon points="14,58 2,76 38,58" fill="#185FA5"/>
  <!-- Флаг GB -->
  <rect x="20" y="20" width="36" height="24" rx="3" fill="#1a3a6b"/>
  <rect x="30" y="20" width="5" height="24" fill="white" opacity="0.85"/>
  <rect x="20" y="30" width="36" height="5" fill="white" opacity="0.85"/>
  <rect x="31" y="20" width="3" height="24" fill="#CC0000" opacity="0.9"/>
  <rect x="20" y="31" width="36" height="3" fill="#CC0000" opacity="0.9"/>
  <line x1="20" y1="20" x2="56" y2="44" stroke="white" stroke-width="2.5" opacity="0.55"/>
  <line x1="56" y1="20" x2="20" y2="44" stroke="white" stroke-width="2.5" opacity="0.55"/>
  <line x1="20" y1="20" x2="56" y2="44" stroke="#CC0000" stroke-width="1.5" opacity="0.8"/>
  <line x1="56" y1="20" x2="20" y2="44" stroke="#CC0000" stroke-width="1.5" opacity="0.8"/>
  <text x="46" y="54" font-family="Arial, sans-serif" font-size="10" font-weight="600" fill="#B5D4F4" text-anchor="middle">EN</text>

  <!-- Звезда -->
  <circle cx="96" cy="37" r="12" fill="#BA7517"/>
  <text x="96" y="43" font-family="Arial, sans-serif" font-size="15" font-weight="600" fill="white" text-anchor="middle">★</text>

  <!-- Пузырь DE -->
  <rect x="108" y="10" width="76" height="54" rx="13" fill="#C8A97A"/>
  <polygon points="176,58 190,76 156,58" fill="#C8A97A"/>
  <!-- Флаг DE -->
  <rect x="121" y="20" width="36" height="8" rx="2" fill="#1a1a1a"/>
  <rect x="121" y="28" width="36" height="8" fill="#CC0000"/>
  <rect x="121" y="36" width="36" height="8" rx="2" fill="#FFCC00"/>
  <text x="146" y="54" font-family="Arial, sans-serif" font-size="10" font-weight="600" fill="#6B4A1E" text-anchor="middle">DE</text>

  <!-- Вертикальный разделитель -->
  <line x1="202" y1="14" x2="202" y2="68" stroke="#F5C4B3" stroke-width="1"/>

  <!-- Текст -->
  <text x="218" y="36" font-family="Arial, sans-serif" font-size="24" font-weight="600" fill="#185FA5">Надежда</text>
  <text x="218" y="62" font-family="Arial, sans-serif" font-size="24" font-weight="600" fill="#C8A97A">Степановна</text>
  <text x="219" y="78" font-family="Arial, sans-serif" font-size="11" fill="#888780">Репетитор иностранных языков</text>
</svg>
