<svg xmlns="http://www.w3.org/2000/svg" viewBox="0 0 100 100" width="100" height="100">
  <!-- Пузырь EN (синий) -->
  <rect x="4" y="8" width="42" height="52" rx="10" fill="#185FA5"/>
  <polygon points="8,54 2,70 28,54" fill="#185FA5"/>
  <!-- Флаг GB -->
  <rect x="11" y="17" width="28" height="18" rx="2" fill="#1a3a6b"/>
  <rect x="22" y="17" width="4" height="18" fill="white" opacity="0.85"/>
  <rect x="11" y="24" width="28" height="4" fill="white" opacity="0.85"/>
  <rect x="23" y="17" width="2" height="18" fill="#CC0000" opacity="0.9"/>
  <rect x="11" y="25" width="28" height="2" fill="#CC0000" opacity="0.9"/>
  <line x1="11" y1="17" x2="39" y2="35" stroke="white" stroke-width="2" opacity="0.5"/>
  <line x1="39" y1="17" x2="11" y2="35" stroke="white" stroke-width="2" opacity="0.5"/>
  <line x1="11" y1="17" x2="39" y2="35" stroke="#CC0000" stroke-width="1.2" opacity="0.8"/>
  <line x1="39" y1="17" x2="11" y2="35" stroke="#CC0000" stroke-width="1.2" opacity="0.8"/>
  <text x="25" y="50" font-family="Arial, sans-serif" font-size="9" font-weight="700" fill="#B5D4F4" text-anchor="middle">EN</text>

  <!-- Звезда -->
  <circle cx="50" cy="34" r="9" fill="#BA7517"/>
  <text x="50" y="40" font-family="Arial, sans-serif" font-size="12" font-weight="700" fill="white" text-anchor="middle">★</text>

  <!-- Пузырь DE (бежевый) -->
  <rect x="54" y="8" width="42" height="52" rx="10" fill="#C8A97A"/>
  <polygon points="92,54 98,70 72,54" fill="#C8A97A"/>
  <!-- Флаг DE -->
  <rect x="61" y="17" width="28" height="6" rx="2" fill="#1a1a1a"/>
  <rect x="61" y="23" width="28" height="6" fill="#CC0000"/>
  <rect x="61" y="29" width="28" height="6" rx="2" fill="#FFCC00"/>
  <text x="75" y="50" font-family="Arial, sans-serif" font-size="9" font-weight="700" fill="#6B4A1E" text-anchor="middle">DE</text>
</svg>
